#!OML:ASF F:\VICON\USERDATA\INSTALL\rory3\rory3.ASF
:FULLY-SPECIFIED
:DEGREES
1
root 1.5049 17.8647 -28.5787 -1.92419 -1.92514 2.21926
lowerback 12.4095 -0.131364 -2.34877
upperback 0.401071 -0.478298 0.448971
thorax -6.52368 -0.154962 1.88583
lowerneck -19.0634 -3.33221 -1.23175
upperneck 23.5591 -4.33453 0.0301508
head 10.7715 -2.0886 -0.422862
rclavicle -7.45443e-017 -1.19271e-015
rhumerus -30.821 -22.8242 -77.3456
rradius 23.6531
rwrist 6.88412
rhand -18.3565 22.5213
rfingers 7.12502
rthumb 7.9263 -7.31007
lclavicle -7.45443e-017 -1.19271e-015
lhumerus -23.8587 -2.76383 81.9731
lradius 29.9865
lwrist 7.33727
lhand -31.131 24.0726
lfingers 7.12502
lthumb -4.40964 54.0067
rfemur -32.1856 -1.58586 20.2638
rtibia 58.976
rfoot -10.6393 -7.80157
rtoes 1.50505
lfemur -2.69651 -1.69033 -27.4981
ltibia 27.3353
lfoot -16.0699 2.28406
ltoes 0.672143
2
root 1.49588 17.8692 -28.4174 -1.74675 -1.69683 2.28689
lowerback 12.4352 -1.0427 -3.38284
upperback -0.787161 -1.77958 1.47746
thorax -7.68086 -0.694257 3.81977
lowerneck -14.5107 -2.40647 -3.14038
upperneck 22.5633 -2.6273 0.0857596
head 9.57218 -1.48833 0.228027
rclavicle -5.11871e-015 -4.77083e-015
rhumerus -32.6085 -18.641 -76.582
rradius 23.6911
rwrist 6.24938
rhand -18.0465 22.5934
rfingers 7.12502
rthumb 8.22549 -7.22645
lclavicle -5.11871e-015 -4.77083e-015
lhumerus -26.8288 0.126601 82.2575
lradius 30.4924
lwrist 6.83367
lhand -31.2746 21.3853
lfingers 7.12502
lthumb -4.54828 51.3165
rfemur -32.6066 -1.76468 20.1761
rtibia 56.3458
rfoot -10.1029 -8.0682
rtoes 0.961069
lfemur -2.04124 -1.66182 -27.5651
ltibia 26.8411
lfoot -16.08 2.28305
ltoes 0.619192
3
root 1.4873 17.8659 -28.2597 -1.59582 -1.53638 2.35044
lowerback 12.3045 -0.783099 -2.97221
upperback -0.251895 -1.39556 1.05363
thorax -7.08527 -0.553998 3.04918
lowerneck -16.5623 -2.76558 -2.47832
upperneck 23.0162 -3.27228 0.229584
head 10.1204 -1.70515 0.0531755
rclavicle -6.93262e-015 -7.55382e-015
rhumerus -32.1081 -20.5789 -76.7561
rradius 23.9003
rwrist 6.3241
rhand -17.9889 22.4695
rfingers 7.12502
rthumb 8.28101 -7.34823
lclavicle -6.93262e-015 -7.55382e-015
lhumerus -24.9233 -1.71637 82.2062
lradius 30.3274
lwrist 6.84458
lhand -31.1776 20.5898
lfingers 7.12502
lthumb -4.4546 50.523
rfemur -33.0458 -1.82613 20.0869
rtibia 53.8017
rfoot -9.52641 -8.47153
rtoes 1.1864
lfemur -1.35962 -1.53417 -27.6173
ltibia 26.3316
lfoot -16.1666 2.17862
ltoes 0.0962278
4
root 1.47465 17.8621 -28.1026 -1.48007 -1.50901 2.40189
lowerback 12.338 -0.373998 -2.63361
upperback 0.626016 -0.828219 0.568449
thorax -6.22163 -0.32303 2.23132
lowerneck -20.3661 -3.22549 -1.26448
upperneck 23.9011 -4.17375 0.082516
head 11.1497 -2.00108 -0.402937
rclavicle -4.74598e-015 3.97569e-016
rhumerus -30.7413 -23.3998 -77.1446
rradius 23.7305
rwrist 6.77528
rhand -17.9486 22.7714
rfingers 7.12502
rthumb 8.3199 -7.04474
lclavicle -4.74598e-015 3.97569e-016
lhumerus -22.1024 -3.87488 81.9896
lradius 30.2323
lwrist 7.34746
lhand -29.6745 23.5697
lfingers 7.12502
lthumb -3.00307 53.5283
rfemur -33.1612 -1.47401 19.8647
rtibia 50.9963
rfoot -9.34862 -8.59102
rtoes 4.92355
lfemur -0.592364 -1.4273 -27.6667
ltibia 25.6849
lfoot -16.139 2.16837
ltoes -0.187549
5
root 1.46377 17.8732 -27.9413 -1.3049 -1.35236 2.52405
lowerback 12.4272 -1.13458 -3.66891
upperback -0.589081 -1.93951 1.5098
thorax -7.43907 -0.769943 4.04006
lowerneck -15.6694 -2.52629 -2.95796
upperneck 22.6741 -2.77025 -0.0256082
head 9.82732 -1.54832 0.125343
rclavicle 1.91827e-014 -1.19271e-014
rhumerus -32.6914 -19.8817 -76.0582
rradius 23.6207
rwrist 6.32789
rhand -17.4215 23.737
rfingers 7.12502
rthumb 8.82862 -6.05832
lclavicle 1.91827e-014 -1.19271e-014
lhumerus -25.014 -1.05017 82.3642
lradius 30.8566
lwrist 6.7595
lhand -28.3029 24.977
lfingers 7.12502
lthumb -1.67849 54.9501
rfemur -33.2309 -1.12252 19.5042
rtibia 48.079
rfoot -9.0126 -8.97389
rtoes 7.09758
lfemur 0.298021 -1.36341 -27.7803
ltibia 24.7223
lfoot -16.033 2.13842
ltoes -1.07481
6
root 1.45081 17.8805 -27.7807 -1.18539 -1.03519 2.65662
lowerback 12.4909 -1.0927 -3.66114
upperback -0.644246 -1.89943 1.32452
thorax -7.54477 -0.750554 3.83431
lowerneck -15.5157 -2.69479 -2.64383
upperneck 22.7335 -3.09519 -0.0266431
head 9.81792 -1.67221 0.0318823
rclavicle 1.94809e-014 -5.56597e-015
rhumerus -33.2028 -20.6953 -75.8141
rradius 23.6661
rwrist 6.28089
rhand -17.0163 24.0933
rfingers 7.12502
rthumb 9.21957 -5.6851
lclavicle 1.94809e-014 -5.56597e-015
lhumerus -24.6554 -2.06416 82.372
lradius 31.0918
lwrist 6.75557
lhand -29.9633 24.3084
lfingers 7.12502
lthumb -3.28197 54.2629
rfemur -33.4381 -1.20901 19.3845
rtibia 44.8576
rfoot -7.11978 -9.82993
rtoes -0.477251
lfemur 1.30215 -1.36616 -27.8754
ltibia 23.6317
lfoot -15.9516 1.91589
ltoes -1.2816
7
root 1.43583 17.917 -27.6197 -1.00969 -0.881802 2.90749
lowerback 12.1972 -1.08949 -3.87488
upperback -0.388604 -1.92135 1.20006
thorax -7.09945 -0.772675 3.809
lowerneck -16.2922 -2.75954 -2.54655
upperneck 23.0668 -3.21341 0.0684984
head 10.0852 -1.70472 0.019363
rclavicle -3.27995e-015 -2.38542e-015
rhumerus -33.0005 -21.1979 -75.9173
rradius 23.7997
rwrist 6.16899
rhand -16.73 24.2202
rfingers 7.12502
rthumb 9.49591 -5.54582
lclavicle -3.27995e-015 -2.38542e-015
lhumerus -23.7843 -2.71836 82.2904
lradius 31.335
lwrist 7.07163
lhand -31.7569 24.4825
lfingers 7.12502
lthumb -5.01403 54.4032
rfemur -33.2306 -0.32308 18.5769
rtibia 41.6623
rfoot -7.46338 -10.1405
rtoes 5.72417
lfemur 2.23927 -1.36896 -28.1012
ltibia 22.534
lfoot -15.673 1.78117
ltoes -0.892012
8
root 1.41903 17.9208 -27.4552 -0.878647 -0.707333 2.95935
lowerback 11.8045 -0.91316 -3.55634
upperback 0.384863 -1.64 0.838189
thorax -6.09828 -0.690286 3.1662
lowerneck -18.7221 -3.13939 -1.86118
upperneck 23.4813 -3.87378 0.0315818
head 10.6901 -1.93799 -0.243286
rclavicle -6.21202e-015 9.93923e-015
rhumerus -31.9391 -23.3255 -76.1791
rradius 23.6038
rwrist 6.43456
rhand -16.1741 25.0567
rfingers 7.12502
rthumb 10.0322 -4.68422
lclavicle -6.21202e-015 9.93923e-015
lhumerus -21.6217 -4.1167 82.0123
lradius 31.1998
lwrist 7.24727
lhand -30.7317 25.0791
lfingers 7.12502
lthumb -4.02405 55.0209
rfemur -32.9595 0.416946 18.153
rtibia 38.2444
rfoot -6.97519 -10.8426
rtoes 4.66683
lfemur 3.15357 -1.22445 -28.0777
ltibia 21.6116
lfoot -15.5129 1.56922
ltoes -1.67131
9
root 1.40212 17.9019 -27.293 -0.763061 -0.409114 3.02489
lowerback 11.8348 -1.26062 -3.91092
upperback -0.0308947 -2.13836 1.14217
thorax -6.49341 -0.902135 3.78153
lowerneck -16.9896 -2.99134 -2.37111
upperneck 22.9594 -3.53823 -0.0358006
head 10.1774 -1.84778 -0.100571
rclavicle 8.00108e-015 -3.57812e-015
rhumerus -32.7634 -21.9938 -75.8782
rradius 23.719
rwrist 5.9395
rhand -16.6169 24.6865
rfingers 7.12502
rthumb 9.60497 -5.07454
lclavicle 8.00108e-015 -3.57812e-015
lhumerus -22.3077 -3.27861 82.104
lradius 31.215
lwrist 7.04253
lhand -29.6378 24.4309
lfingers 7.12502
lthumb -2.96771 54.39
rfemur -32.7518 0.864342 17.8084
rtibia 35.0146
rfoot -6.62438 -11.5973
rtoes 0.966986
lfemur 4.10084 -1.1151 -28.0466
ltibia 20.6603
lfoot -15.4074 1.12893
ltoes -1.98172
